<?xml version="1.0" standalone="no"?>
<!DOCTYPE svg PUBLIC "-//W3C//DTD SVG 20010904//EN"
 "http://www.w3.org/TR/2001/REC-SVG-20010904/DTD/svg10.dtd">
<svg version="1.0" xmlns="http://www.w3.org/2000/svg"
 width="1600.000000pt" height="1600.000000pt" viewBox="0 0 1600.000000 1600.000000"
 preserveAspectRatio="xMidYMid meet">

<g transform="translate(0.000000,1600.000000) scale(0.100000,-0.100000)"
fill="#000000" stroke="none">
<path d="M0 8000 l0 -8000 8000 0 8000 0 0 8000 0 8000 -8000 0 -8000 0 0
-8000z m7710 214 l0 -4594 -1365 0 -1365 0 0 3205 0 3205 38 42 c20 23 47 51
60 62 13 12 42 41 65 65 132 140 377 393 647 667 102 104 318 326 480 493 598
615 1011 1040 1250 1284 85 87 156 162 158 167 2 5 10 6 18 3 12 -4 14 -617
14 -4599z m-3189 1324 c0 -7 1 -1340 1 -2963 l1 -2950 -344 0 -344 0 -3 2550
c-2 1403 0 2582 3 2620 l6 70 182 187 c413 426 482 496 490 497 4 1 7 -5 8
-11z m5357 -2369 c146 -16 248 -59 373 -155 108 -82 194 -214 241 -364 32
-107 32 -283 0 -390 -63 -202 -197 -361 -377 -447 -127 -60 -163 -65 -542 -70
l-343 -5 0 -675 0 -675 -31 -29 c-25 -23 -40 -29 -76 -29 -37 0 -50 5 -74 31
l-29 31 0 1289 0 1289 -60 0 -60 0 -2 -1301 -3 -1301 -33 -29 c-45 -41 -102
-41 -143 0 l-29 29 0 1384 c0 1295 2 1384 18 1404 9 12 24 24 32 27 26 9 1041
-3 1138 -14z m1824 -48 l33 -29 0 -1341 0 -1340 -29 -30 c-41 -43 -100 -44
-139 -3 l-27 28 0 1346 0 1346 31 26 c42 36 89 35 131 -3z"/>
<path d="M9238 6965 c-5 -5 -8 -235 -8 -512 l0 -503 317 0 c344 0 395 6 498
58 64 32 175 143 207 207 64 125 77 281 35 397 -44 122 -137 232 -247 292 -90
49 -142 56 -480 63 -173 3 -318 2 -322 -2z"/>
</g>
</svg>
